<svg xmlns="http://www.w3.org/2000/svg" xmlns:xlink="http://www.w3.org/1999/xlink" width="65.466" height="42" viewBox="0 0 65.466 42"><defs><clipPath id="a"><rect width="65.466" height="42" fill="none"/></clipPath></defs><g transform="translate(0 0)"><g transform="translate(0 0)" clip-path="url(#a)"><path d="M0,8.1a.256.256,0,0,0,.2-.256A7.74,7.74,0,0,1,1.788,3.993,9.4,9.4,0,0,1,4.44,1.5,10.017,10.017,0,0,1,8.134.122,19.084,19.084,0,0,1,11.223.008,6.54,6.54,0,0,1,12.4.168a19.123,19.123,0,0,1,3.448.944c.581.221,1.154.461,1.729.694a22.043,22.043,0,0,0,3.531,1.17,11.249,11.249,0,0,0,2.58.269c.273,0,.534-.067.8-.089a17.074,17.074,0,0,0,3.4-.684c1.058-.309,2.1-.663,3.151-1A30.274,30.274,0,0,1,34.883.465,11.8,11.8,0,0,1,37.823.29a9.836,9.836,0,0,1,2.7.592.507.507,0,0,1,.236.147c-.408.035-.811.121-1.217.144a16.4,16.4,0,0,0-2.182.32,29.661,29.661,0,0,0-4,1.039c-.619.213-1.254.374-1.862.623-.583.239-1.171.464-1.746.728-.424.195-.867.354-1.286.561-.7.346-1.412.69-2.09,1.082-.728.421-1.478.805-2.169,1.288a7.418,7.418,0,0,1-.82.538,21.572,21.572,0,0,0-2.083,1.4c-.281.189-.541.408-.814.607a5.325,5.325,0,0,0-.628.432c-.458.452-1.011.78-1.5,1.194-.334.284-.677.568-1.035.828-.527.382-.964.867-1.47,1.276-.352.285-.659.634-1.018.914-.234.183-.381.447-.613.618a10.98,10.98,0,0,0-1.048.987c-.682.658-1.3,1.38-1.943,2.072-.36.384-.682.8-1.04,1.181-.3.317-.546.674-.835.99-.316.346-.566.736-.863,1.092-.337.4-.633.841-.936,1.272-.39.555-.762,1.124-1.156,1.676a6.472,6.472,0,0,1-.677.976c-.151-.037-.17-.181-.23-.29-.233-.418-.387-.872-.589-1.3-.266-.568-.573-1.116-.859-1.675-.074-.144-.13-.3-.2-.445-.6-1.248-1.208-2.491-1.79-3.746-.321-.691-.6-1.4-.874-2.112a17.58,17.58,0,0,1-.661-2.072A7.852,7.852,0,0,1,.2,11.5c0-.153-.025-.309-.2-.376Z" transform="translate(0 -0.001)" fill="#fff"/><path d="M38.218,113.735c-.006-.041-.012-.082-.017-.123a5.073,5.073,0,0,0,.8.042c.114,0,.231-.066.342.01,0,.024,0,.047,0,.07Z" transform="translate(-24.12 -71.735)" fill="#fff"/><path d="M25.04,43.692c-.112-.076-.229-.01-.342-.01a5.074,5.074,0,0,1-.8-.042,2.368,2.368,0,0,1-1.384-.66,10.371,10.371,0,0,1-.79-.843.41.41,0,0,1-.06-.123,3.144,3.144,0,0,0-.409-.693,1.251,1.251,0,0,1-.261-.483,4.053,4.053,0,0,0-.382-.962c-.233-.48-.323-1-.517-1.492a9.75,9.75,0,0,1-.285-1.08c-.213-.8-.5-1.581-.741-2.376a17.613,17.613,0,0,0-.624-1.714q-.356-.857-.722-1.711c-.34-.8-.7-1.582-1.035-2.378-.144-.344-.3-.676-.47-1.007-.248-.484-.45-.991-.672-1.488a6.472,6.472,0,0,0,.677-.976c.395-.552.766-1.121,1.156-1.676.3-.431.6-.868.936-1.272.3-.356.547-.747.863-1.092.289-.316.538-.673.835-.99.359-.382.68-.8,1.04-1.181.647-.691,1.261-1.414,1.943-2.072a10.98,10.98,0,0,1,1.048-.987c.232-.171.378-.435.613-.618.359-.28.666-.63,1.018-.914.506-.409.943-.894,1.47-1.276.358-.26.7-.543,1.035-.828.488-.415,1.041-.742,1.5-1.194a5.389,5.389,0,0,1,.629-.432c.273-.2.533-.418.813-.607a21.636,21.636,0,0,1,2.083-1.4,7.471,7.471,0,0,0,.82-.538c.691-.483,1.442-.867,2.169-1.288.679-.392,1.386-.736,2.09-1.082.419-.206.862-.366,1.286-.56.575-.264,1.162-.489,1.746-.728.607-.249,1.243-.41,1.862-.623a29.722,29.722,0,0,1,4-1.04,16.445,16.445,0,0,1,2.182-.32c.405-.023.809-.109,1.217-.144a7.176,7.176,0,0,1,2.13,1.215,7.844,7.844,0,0,1,2.776,4.728,11.91,11.91,0,0,1,.182,3.327,20.213,20.213,0,0,1-1.109,5.144.176.176,0,0,0-.009.151c.078.068.188.038.287.038q6.025,0,12.051,0c.325,0,.325,0,.325-.334,0-.681-.007-1.363,0-2.044a.349.349,0,0,0-.25-.394,2.139,2.139,0,0,1-1.359-2.21,2.162,2.162,0,0,1,1.83-1.96,2.2,2.2,0,0,1,1.5,4.024,1.3,1.3,0,0,1-.416.186c-.282.082-.279.035-.279.385,0,.951,0,1.9,0,2.854,0,.558.077.494-.478.494q-5.074,0-10.149,0H54.477c-.337,0-.334,0-.453.308-.43,1.1-.893,2.2-1.41,3.263a.533.533,0,0,0-.091.262l.082.029c.387-.006.774-.016,1.162-.016q8.45,0,16.9,0c.326,0,.291.013.411-.3a2.165,2.165,0,0,1,2.158-1.383,2.113,2.113,0,0,1,1.926,1.454,2.14,2.14,0,0,1-1.621,2.849,1.937,1.937,0,0,1-.836.022l-.084-.017a.845.845,0,0,1-.529-.217.178.178,0,0,0-.06-.037,1.752,1.752,0,0,1-.923-1.044.379.379,0,0,0-.431-.256c-.328.016-.658.006-.986.006q-8.668,0-17.336,0c-.207,0-.379,0-.487.239-.541,1.176-1.1,2.344-1.658,3.536a1,1,0,0,0,.431.04l13.46,0c.531,0,.471-.063.472.466q0,2.449,0,4.9c0,.295-.034.3.285.426a2.2,2.2,0,0,1,.91,3.456,2,2,0,0,1-1.256.719,1.917,1.917,0,0,1-1.683-.338,2.294,2.294,0,0,1-.77-1,2.533,2.533,0,0,1-.1-1.344,1.655,1.655,0,0,1,.788-1.178,4.483,4.483,0,0,1,.581-.325.286.286,0,0,0,.189-.268,1.479,1.479,0,0,0,0-.176q0-1.956-.007-3.911c0-.366,0-.366-.374-.366h-12.9c-.49,0-.487,0-.682.463a35.887,35.887,0,0,0-1.807,5.756c-.388,1.644-.732,3.3-1.149,4.935a7.28,7.28,0,0,1-.72,1.964,4.371,4.371,0,0,1-2.258,2.073,4.051,4.051,0,0,1-4-.652A5.7,5.7,0,0,1,38.3,41.3a12.51,12.51,0,0,0-1.345-1.762,5.665,5.665,0,0,0-2.131-1.46,3.145,3.145,0,0,0-2.494.121,7.84,7.84,0,0,0-2.467,1.9c-.655.705-1.29,1.429-2,2.083a5.852,5.852,0,0,1-2.595,1.428c-.078.02-.153.052-.23.078M64.1,36.08a1.107,1.107,0,0,0,1.122-1.1,1.158,1.158,0,0,0-1.13-1.15,1.188,1.188,0,0,0-1.133,1.157,1.152,1.152,0,0,0,1.14,1.1m9.02-14.475a1.127,1.127,0,0,0-1.137,1.131,1.153,1.153,0,0,0,1.115,1.13,1.188,1.188,0,0,0,1.146-1.145,1.148,1.148,0,0,0-1.124-1.116m-4.229-8.988a1.236,1.236,0,0,0-1.114-1.136,1.115,1.115,0,0,0-1.143,1.131,1.162,1.162,0,0,0,1.131,1.126,1.144,1.144,0,0,0,1.126-1.121" transform="translate(-9.815 -1.762)" fill="#fff"/><path d="M170.4,62.694l.084.017c-.041.056-.07.057-.084-.017" transform="translate(-107.589 -39.585)" fill="#fff"/><path d="M115.951,55.551l-.083-.029c.037-.017.06,0,.083.029" transform="translate(-73.159 -35.053)" fill="#fff"/></g></g></svg>