<svg xmlns="http://www.w3.org/2000/svg" xmlns:xlink="http://www.w3.org/1999/xlink" width="136.664" height="30.092" viewBox="0 0 136.664 30.092"><defs><clipPath id="a"><rect width="136.664" height="30.092" fill="none"/></clipPath></defs><g transform="translate(0 0)"><g transform="translate(0 0)" clip-path="url(#a)"><path d="M0,5.8a.183.183,0,0,0,.141-.183,5.546,5.546,0,0,1,1.14-2.757,6.735,6.735,0,0,1,1.9-1.785A7.177,7.177,0,0,1,5.828.087,13.673,13.673,0,0,1,8.041.006,4.686,4.686,0,0,1,8.888.12,13.7,13.7,0,0,1,11.358.8c.416.158.827.33,1.239.5a15.794,15.794,0,0,0,2.53.838,8.06,8.06,0,0,0,1.848.193c.2,0,.383-.048.575-.064a12.233,12.233,0,0,0,2.436-.49c.758-.221,1.506-.475,2.258-.715A21.691,21.691,0,0,1,24.993.333,8.456,8.456,0,0,1,27.1.208a7.047,7.047,0,0,1,1.936.424A.363.363,0,0,1,29.2.738c-.292.025-.581.087-.872.1a11.75,11.75,0,0,0-1.564.229,21.251,21.251,0,0,0-2.867.745c-.443.153-.9.268-1.334.447-.418.171-.839.333-1.251.521-.3.139-.621.254-.921.4-.5.248-1.011.494-1.5.775-.521.3-1.059.577-1.554.923a5.314,5.314,0,0,1-.588.385,15.456,15.456,0,0,0-1.492,1c-.2.135-.387.292-.583.435a3.816,3.816,0,0,0-.45.309c-.328.324-.725.559-1.074.855-.239.2-.485.407-.742.593-.377.274-.691.621-1.053.914-.252.2-.472.454-.729.655-.168.131-.273.32-.439.443a7.867,7.867,0,0,0-.751.708c-.489.471-.929.989-1.392,1.484-.258.275-.488.573-.745.846-.213.227-.391.483-.6.709-.227.248-.405.527-.619.783-.241.289-.454.6-.671.911-.28.4-.546.805-.828,1.2a4.637,4.637,0,0,1-.485.7c-.108-.027-.121-.13-.165-.208-.167-.3-.277-.625-.422-.934-.191-.407-.411-.8-.615-1.2-.053-.1-.093-.214-.143-.318-.428-.894-.865-1.785-1.283-2.684-.23-.5-.433-1-.626-1.514A12.6,12.6,0,0,1,.377,9.475,5.626,5.626,0,0,1,.144,8.242c0-.11-.018-.221-.144-.269Z" transform="translate(0 -0.001)" fill="#6ddff8"/><path d="M38.213,113.7c0-.029-.008-.059-.012-.088a3.636,3.636,0,0,0,.575.03c.082,0,.165-.047.245.007,0,.017,0,.034,0,.05Z" transform="translate(-28.112 -83.608)" fill="#6ddff8"/><path d="M22.348,32.1c-.08-.054-.164-.007-.245-.007a3.636,3.636,0,0,1-.575-.03,1.7,1.7,0,0,1-.992-.473,7.43,7.43,0,0,1-.566-.6.294.294,0,0,1-.043-.088,2.252,2.252,0,0,0-.293-.5.9.9,0,0,1-.187-.346,2.9,2.9,0,0,0-.274-.69c-.167-.344-.231-.718-.371-1.069a6.986,6.986,0,0,1-.2-.774c-.153-.575-.362-1.133-.531-1.7a12.62,12.62,0,0,0-.447-1.228q-.255-.614-.517-1.226c-.244-.57-.5-1.133-.742-1.7-.1-.246-.215-.484-.336-.721-.178-.347-.322-.71-.481-1.066a4.637,4.637,0,0,0,.485-.7c.283-.4.549-.8.828-1.2.217-.309.429-.622.671-.911.213-.255.392-.535.619-.783.207-.227.385-.482.6-.709.257-.274.488-.571.745-.846.463-.5.9-1.013,1.392-1.484a7.867,7.867,0,0,1,.751-.708c.166-.123.271-.312.439-.443.257-.2.477-.451.729-.655.362-.293.676-.641,1.053-.914.257-.186.5-.389.742-.593.349-.3.746-.532,1.074-.856a3.861,3.861,0,0,1,.451-.309c.2-.143.382-.3.583-.435a15.5,15.5,0,0,1,1.492-1,5.353,5.353,0,0,0,.588-.385c.5-.346,1.033-.621,1.554-.923.486-.281.993-.527,1.5-.775.3-.148.618-.262.921-.4.412-.189.833-.35,1.251-.521.435-.179.891-.294,1.334-.447a21.3,21.3,0,0,1,2.867-.745,11.783,11.783,0,0,1,1.563-.229c.291-.017.58-.078.872-.1a5.142,5.142,0,0,1,1.526.871,5.62,5.62,0,0,1,1.989,3.387,8.533,8.533,0,0,1,.13,2.384,14.483,14.483,0,0,1-.795,3.685.126.126,0,0,0-.006.109c.056.049.135.027.206.027q4.317,0,8.635,0c.233,0,.233,0,.233-.239,0-.488-.005-.976,0-1.464a.25.25,0,0,0-.179-.283,1.532,1.532,0,0,1-.974-1.584,1.549,1.549,0,0,1,1.311-1.4A1.573,1.573,0,0,1,53.8,11.163a.934.934,0,0,1-.3.133c-.2.059-.2.025-.2.276,0,.682,0,1.364,0,2.045,0,.4.055.354-.342.354q-3.635,0-7.271,0H43.439c-.242,0-.24,0-.325.221-.308.791-.64,1.573-1.01,2.338a.382.382,0,0,0-.065.188l.059.021c.278,0,.555-.012.832-.012l12.108,0c.233,0,.209.01.295-.218a1.551,1.551,0,0,1,1.546-.991,1.514,1.514,0,0,1,1.38,1.042A1.533,1.533,0,0,1,57.1,18.607a1.388,1.388,0,0,1-.6.016l-.06-.012a.606.606,0,0,1-.379-.156.128.128,0,0,0-.043-.026,1.255,1.255,0,0,1-.662-.748.271.271,0,0,0-.309-.183c-.235.012-.471,0-.707,0q-6.211,0-12.421,0c-.148,0-.271,0-.349.171-.387.842-.786,1.68-1.188,2.533a.717.717,0,0,0,.308.029l9.644,0c.38,0,.338-.045.338.334q0,1.755,0,3.509c0,.211-.025.217.2.306a1.576,1.576,0,0,1,.652,2.476,1.43,1.43,0,0,1-.9.515,1.374,1.374,0,0,1-1.206-.242,1.643,1.643,0,0,1-.552-.713,1.815,1.815,0,0,1-.072-.963,1.185,1.185,0,0,1,.564-.844,3.212,3.212,0,0,1,.416-.233.2.2,0,0,0,.135-.192,1.059,1.059,0,0,0,0-.126q0-1.4,0-2.8c0-.263,0-.262-.268-.262h-9.24c-.351,0-.349,0-.489.331a25.711,25.711,0,0,0-1.295,4.124c-.278,1.178-.524,2.363-.823,3.536a5.216,5.216,0,0,1-.516,1.407,3.132,3.132,0,0,1-1.618,1.485,2.9,2.9,0,0,1-2.864-.467,4.086,4.086,0,0,1-.956-1.032,8.963,8.963,0,0,0-.963-1.262,4.059,4.059,0,0,0-1.527-1.046,2.254,2.254,0,0,0-1.787.087A5.617,5.617,0,0,0,25.8,29.524c-.469.505-.924,1.024-1.431,1.492a4.193,4.193,0,0,1-1.859,1.023c-.056.014-.11.037-.165.056m27.987-5.454a.793.793,0,0,0,.8-.789.83.83,0,0,0-.809-.824.851.851,0,0,0-.812.829.825.825,0,0,0,.817.785M56.8,16.271a.807.807,0,0,0-.815.811.826.826,0,0,0,.8.81.851.851,0,0,0,.821-.821.822.822,0,0,0-.805-.8m-3.03-6.439a.885.885,0,0,0-.8-.814.8.8,0,0,0-.819.81.832.832,0,0,0,.81.807.819.819,0,0,0,.807-.8" transform="translate(-11.439 -2.054)" fill="#29c1ef"/><path d="M341.385,36.947q0-10.2-.005-20.4c0-.025,0-.05,0-.076.008-.274.014-.28.288-.28,1.9,0,3.8,0,5.706,0a.372.372,0,0,1,.395.262c.856,1.883,1.723,3.761,2.584,5.641q.814,1.777,1.623,3.558c.038.081.058.175.145.229.079-.041.1-.119.126-.185q1.8-3.905,3.6-7.812c.226-.489.453-.976.669-1.469a.318.318,0,0,1,.338-.225c1.9.008,3.8.005,5.706.005l.152,0c.08,0,.127.035.128.12,0,.059,0,.118,0,.177q0,10,0,20c0,.126-.009.253,0,.379s-.047.149-.15.143c-.051,0-.1,0-.152,0h-5.226c-.189,0-.193,0-.193-.2q0-1.123,0-2.247V26.148a.451.451,0,0,0-.141.247c-.4.954-.843,1.889-1.268,2.832-.586,1.3-1.18,2.6-1.771,3.893-.083.182-.171.363-.246.548a.142.142,0,0,1-.151.1h-.328c-.8,0-1.6,0-2.4,0a.31.31,0,0,1-.345-.212c-.173-.428-.367-.849-.56-1.269-.083-.181-.168-.36-.248-.542q-.656-1.5-1.329-2.986c-.348-.775-.7-1.546-1.053-2.32-.037-.082-.063-.171-.094-.255-.082.013-.06.076-.063.119-.006.084,0,.168,0,.252V36.632c0,.034,0,.067,0,.1,0,.285.027.274-.272.274h-5.227c-.067,0-.134,0-.2-.007l-.039-.053" transform="translate(-251.223 -11.911)" fill="#29c1ef"/><path d="M451.9,36.849c0-.143.01-.285.01-.428q0-4.69,0-9.38a8.293,8.293,0,0,1,.025-.831c.011-.041.022-.089-.035-.1s-.087.033-.093.089c-.075.288-.237.54-.338.817-.143.4-.371.754-.514,1.146-.117.32-.3.6-.419.924s-.275.618-.416.926c-.1.226-.193.458-.308.679-.129.249-.229.512-.334.772-.028.07-.059.136-.093.2-.254.5-.463,1.022-.687,1.536-.072.165-.215.3-.229.49,0,.055-.068.069-.12.071-.109,0-.219,0-.328,0-.808,0-1.616,0-2.424,0a.288.288,0,0,1-.316-.2c-.446-1.009-.9-2.012-1.358-3.018q-.772-1.714-1.543-3.429c-.12-.267-.246-.532-.369-.8-.013-.028-.022-.065-.089-.055a.708.708,0,0,0-.013.232q0,4.936,0,9.871c0,.168,0,.337,0,.5,0,.085-.033.125-.118.122-.059,0-.118,0-.177,0h-5.151c-.3,0-.275.024-.275-.269q0-10.136,0-20.273v-.025c0-.248,0-.249.249-.249,1.91,0,3.821,0,5.731,0a.359.359,0,0,1,.382.245c.751,1.654,1.511,3.3,2.266,4.955q.976,2.134,1.95,4.268a.491.491,0,0,0,.134.227c.071-.017.081-.07.1-.114l3.263-7.079c.345-.749.693-1.5,1.028-2.248a.371.371,0,0,1,.4-.255c1.885.009,3.77.005,5.656.005.05,0,.1,0,.151,0a.135.135,0,0,1,.154.154c0,.143,0,.286,0,.429q0,5.971,0,11.942,0,3.585,0,7.17c0,.353-.006.707-.009,1.06l-.038.052c-.1,0-.2.008-.3.008h-5.079c-.092,0-.184,0-.276-.007-.006-.054.011-.116-.052-.151" transform="translate(-320.993 -11.911)" fill="#29c1ef"/><path d="M200.146,16.247a10.371,10.371,0,0,1,4.385,1.141,9.168,9.168,0,0,1,2.655,2,8.959,8.959,0,0,1,1.12,1.573,9.4,9.4,0,0,1,.854,1.975,12.685,12.685,0,0,1,.5,2.5,14.134,14.134,0,0,1,.032,1.84,10.632,10.632,0,0,1-1.3,4.833,9.327,9.327,0,0,1-1.2,1.66c-.162.182-.311.373-.49.54a9.984,9.984,0,0,1-1.741,1.291,10.536,10.536,0,0,1-2.054.9,7.829,7.829,0,0,1-1.041.286c-.428.08-.865.111-1.3.165a12.494,12.494,0,0,1-1.562.055h-7.473c-.4,0-.327.025-.328-.315q0-10.01,0-20.019c0-.143.007-.285.011-.428l.048-.045c.084,0,.168-.008.252-.008q3.959,0,7.918,0a2.864,2.864,0,0,1,.677.037l.013.041.022-.036m-3.184,10.362h0v5.2c0,.207,0,.212.208.211.749,0,1.5-.01,2.247-.011a4.336,4.336,0,0,0,2.675-.959,4.069,4.069,0,0,0,1.141-1.428,6.177,6.177,0,0,0,.622-2.271,7.493,7.493,0,0,0-.215-2.749,4.6,4.6,0,0,0-1.124-2.06,4.465,4.465,0,0,0-3-1.324c-.773-.044-1.548-.008-2.322-.02-.235,0-.234,0-.234.235v5.175" transform="translate(-140.706 -11.923)" fill="#29c1ef"/><path d="M280.031,37a.652.652,0,0,1-.255.019H274.5c-.05,0-.1,0-.152,0a.131.131,0,0,1-.144-.107c-.14-.421-.316-.833-.423-1.262-.052-.21-.153-.407-.183-.613-.044-.3-.2-.557-.25-.854a1.622,1.622,0,0,0-.159-.472,1.428,1.428,0,0,1-.142-.5c-.024-.243-.068-.268-.3-.268q-2.045-.006-4.09-.01c-.336,0-.673.013-1.009.007a.221.221,0,0,0-.249.187c-.326,1.09-.658,2.179-.986,3.269-.048.16-.091.321-.133.483a.156.156,0,0,1-.179.137c-.033,0-.067,0-.1,0h-5.653c.127-.368.245-.715.366-1.061.108-.311.248-.613.341-.924.164-.544.36-1.076.551-1.609.274-.765.51-1.543.8-2.3s.52-1.558.809-2.327.521-1.557.809-2.327.525-1.556.808-2.327.545-1.549.811-2.326c.3-.886.6-1.774.905-2.659.241-.7.5-1.391.732-2.091.085-.252.22-.482.293-.738a.158.158,0,0,1,.189-.124c.025,0,.05,0,.076,0H272.6c.225,0,.224,0,.3.216q.553,1.6,1.106,3.194.447,1.29.9,2.58.667,1.928,1.331,3.857.652,1.882,1.308,3.762c.457,1.318.909,2.636,1.367,3.954.35,1.009.707,2.017,1.056,3.027.021.062.075.114.065.208M268.32,29.1a.46.46,0,0,0,.079.024q1.741,0,3.482,0c.158,0,.167-.02.129-.182-.008-.032-.016-.065-.025-.1-.35-1.219-.71-2.435-1.047-3.658-.206-.746-.468-1.476-.642-2.231-.012-.054,0-.137-.1-.163-.6,2.109-1.247,4.2-1.877,6.307" transform="translate(-191.588 -11.922)" fill="#29c1ef"/><path d="M495.548,94.426c.062.035.046.1.052.151-.121-.03-.127-.045-.052-.151" transform="translate(-364.64 -69.489)" fill="#6ddff8"/><path d="M495.337,53.866c.006-.056.036-.1.093-.089s.045.055.035.1l-.128-.007" transform="translate(-364.521 -39.574)" fill="#6ddff8"/><path d="M517.3,94.85l.038-.052c.007.032-.005.049-.038.052" transform="translate(-380.685 -69.762)" fill="#6ddff8"/><path d="M341.4,94.8l.039.053c-.033,0-.046-.02-.039-.053" transform="translate(-251.233 -69.763)" fill="#6ddff8"/><path d="M224.97,16.35l-.022.036-.013-.041a.039.039,0,0,1,.035.005" transform="translate(-165.531 -12.027)" fill="#6ddff8"/><path d="M170.4,62.694l.06.012c-.029.04-.05.041-.06-.012" transform="translate(-125.397 -46.137)" fill="#6ddff8"/><path d="M115.927,55.541l-.059-.021c.026-.012.043,0,.059.021" transform="translate(-85.268 -40.854)" fill="#6ddff8"/></g></g></svg>